<svg clip-rule="evenodd" fill-rule="evenodd" stroke-linejoin="round" stroke-miterlimit="2" viewBox="0 0 512 512" xmlns="http://www.w3.org/2000/svg"><path d="m384 121.941v6.059h-128v-128h6.059c6.362 0 12.471 2.53 16.97 7.029l97.941 97.941c4.499 4.499 7.03 10.608 7.03 16.971zm-136 38.059c-13.2 0-24-10.8-24-24v-136h-200c-13.255 0-24 10.745-24 24v464c0 13.255 10.745 24 24 24h336c13.255 0 24-10.745 24-24v-328zm-135.455 16c26.51 0 48 21.49 48 48s-21.49 48-48 48-48-21.49-48-48 21.491-48 48-48zm208 240h-256l.485-48.485 39.515-39.515c4.686-4.686 11.799-4.201 16.485.485l39.515 39.515 103.515-103.515c4.686-4.686 12.284-4.686 16.971 0l39.514 39.515z" fill="#f9423a" fill-rule="nonzero" transform="matrix(.70312701823 0 0 .70312701823 28.18755 76.000178177)"/><g transform="matrix(1.02121203002 0 0 .98852824161 -20.3496213008 -8.2716832968)"><path d="m493.691 240.666c0-14.721-11.569-26.673-25.819-26.673h-154.918c-14.25 0-25.819 11.952-25.819 26.673v53.347c0 14.721 11.569 26.673 25.819 26.673h154.918c14.25 0 25.819-11.952 25.819-26.673z" fill="#fff"/><path d="m497.608 240.666c0-16.955-13.324-30.72-29.736-30.72h-154.918c-16.412 0-29.736 13.765-29.736 30.72v53.347c0 16.954 13.324 30.719 29.736 30.719h154.918c16.412 0 29.736-13.765 29.736-30.719zm-3.917 0c0-14.721-11.569-26.673-25.819-26.673h-154.918c-14.25 0-25.819 11.952-25.819 26.673v53.347c0 14.721 11.569 26.673 25.819 26.673h154.918c14.25 0 25.819-11.952 25.819-26.673z" fill="#f9423a"/></g><g fill="#f9423a" fill-rule="nonzero"><path d="m.561-.476v-.042c0-.129-.106-.207-.257-.207-.152 0-.258.085-.258.214v.032h.155v-.039c0-.042.04-.067.104-.067.063 0 .101.018.101.06v.049c0 .03-.02.05-.083.05h-.122v.134h.122c.063 0 .083.02.083.05v.057c0 .042-.039.06-.102.06-.064 0-.103-.025-.103-.067v-.036h-.155v.029c0 .129.106.214.258.214.151 0 .257-.078.257-.207v-.05c0-.046-.018-.086-.049-.117.031-.031.049-.071.049-.117z" transform="matrix(105.469 0 0 105.469 343.6454766566 293.4423248442)"/><path d="m.37-.458v.169h-.159l.178-.421h-.17l-.178.421v.14h.329v.149h.155v-.458z" transform="matrix(105.469 0 0 105.469 407.3487526566 293.4423248442)"/></g></svg>